<svg width="9" height="12" viewBox="0 0 9 12" fill="none" xmlns="http://www.w3.org/2000/svg">
<path d="M4.07031 11.1602C4.26367 11.4609 4.71484 11.4609 4.9082 11.1602C8.04492 6.64844 8.625 6.17578 8.625 4.5C8.625 2.22266 6.77734 0.375 4.5 0.375C2.20117 0.375 0.375 2.22266 0.375 4.5C0.375 6.17578 0.933594 6.64844 4.07031 11.1602ZM4.5 6.21875C3.5332 6.21875 2.78125 5.4668 2.78125 4.5C2.78125 3.55469 3.5332 2.78125 4.5 2.78125C5.44531 2.78125 6.21875 3.55469 6.21875 4.5C6.21875 5.4668 5.44531 6.21875 4.5 6.21875Z" fill="#4E92F9"/>
</svg>
