<svg width="11" height="12" viewBox="0 0 11 12" fill="none" xmlns="http://www.w3.org/2000/svg">
<path d="M10.6777 8.32324L8.27148 7.29199C8.20703 7.27051 8.14258 7.24902 8.05664 7.24902C7.90625 7.24902 7.75586 7.33496 7.66992 7.44238L6.5957 8.75293C4.91992 7.95801 3.58789 6.62598 2.79297 4.9502L4.10352 3.87598C4.21094 3.79004 4.29688 3.63965 4.29688 3.46777C4.29688 3.40332 4.27539 3.33887 4.25391 3.27441L3.22266 0.868164C3.13672 0.674805 2.94336 0.545898 2.72852 0.545898C2.70703 0.545898 2.66406 0.567383 2.62109 0.567383L0.386719 1.08301C0.150391 1.14746 0 1.34082 0 1.57715C0 7.09863 4.44727 11.5459 9.96875 11.5459C10.2051 11.5459 10.3984 11.3955 10.4629 11.1592L10.9785 8.9248C10.9785 8.88184 10.9785 8.83887 10.9785 8.81738C10.9785 8.60254 10.8496 8.40918 10.6777 8.32324Z" fill="#4E92F9"/>
</svg>
