<svg width="11" height="12" viewBox="0 0 11 12" fill="none" xmlns="http://www.w3.org/2000/svg">
<path d="M5.26074 6.0459C6.76465 6.0459 8.01074 4.82129 8.01074 3.2959C8.01074 1.79199 6.76465 0.545898 5.26074 0.545898C3.73535 0.545898 2.51074 1.79199 2.51074 3.2959C2.51074 4.82129 3.73535 6.0459 5.26074 6.0459ZM7.17285 6.7334H6.80762C6.33496 6.96973 5.81934 7.07715 5.26074 7.07715C4.70215 7.07715 4.16504 6.96973 3.69238 6.7334H3.32715C1.7373 6.7334 0.448242 8.04395 0.448242 9.63379V10.5146C0.448242 11.0947 0.899414 11.5459 1.47949 11.5459H9.04199C9.60059 11.5459 10.0732 11.0947 10.0732 10.5146V9.63379C10.0732 8.04395 8.7627 6.7334 7.17285 6.7334Z" fill="#7E92B3"/>
</svg>
