<svg width="12" height="10" viewBox="0 0 12 10" fill="none" xmlns="http://www.w3.org/2000/svg">
<path d="M11.604 3.64941C11.1099 4.03613 10.4868 4.50879 8.29541 6.09863C7.86572 6.4209 7.0708 7.12988 6.31885 7.12988C5.54541 7.12988 4.77197 6.4209 4.3208 6.09863C2.12939 4.50879 1.50635 4.03613 1.01221 3.64941C0.92627 3.58496 0.818848 3.64941 0.818848 3.75684V8.13965C0.818848 8.71973 1.27002 9.1709 1.8501 9.1709H10.7876C11.3462 9.1709 11.8188 8.71973 11.8188 8.13965V3.75684C11.8188 3.64941 11.6899 3.58496 11.604 3.64941ZM6.31885 6.4209C6.81299 6.44238 7.52197 5.79785 7.88721 5.54004C10.7446 3.47754 10.9595 3.28418 11.604 2.76855C11.7329 2.68262 11.8188 2.53223 11.8188 2.36035V1.95215C11.8188 1.39355 11.3462 0.920898 10.7876 0.920898H1.8501C1.27002 0.920898 0.818848 1.39355 0.818848 1.95215V2.36035C0.818848 2.53223 0.883301 2.68262 1.01221 2.76855C1.65674 3.28418 1.87158 3.47754 4.729 5.54004C5.09424 5.79785 5.80322 6.44238 6.31885 6.4209Z" fill="#7E92B3"/>
</svg>
