<svg width="12" height="9" viewBox="0 0 12 9" fill="none" xmlns="http://www.w3.org/2000/svg">
<path d="M11.0713 3.47852C10.5771 3.86523 9.9541 4.33789 7.7627 5.92773C7.33301 6.25 6.53809 6.95898 5.78613 6.95898C5.0127 6.95898 4.23926 6.25 3.78809 5.92773C1.59668 4.33789 0.973633 3.86523 0.479492 3.47852C0.393555 3.41406 0.286133 3.47852 0.286133 3.58594V7.96875C0.286133 8.54883 0.737305 9 1.31738 9H10.2549C10.8135 9 11.2861 8.54883 11.2861 7.96875V3.58594C11.2861 3.47852 11.1572 3.41406 11.0713 3.47852ZM5.78613 6.25C6.28027 6.27148 6.98926 5.62695 7.35449 5.36914C10.2119 3.30664 10.4268 3.11328 11.0713 2.59766C11.2002 2.51172 11.2861 2.36133 11.2861 2.18945V1.78125C11.2861 1.22266 10.8135 0.75 10.2549 0.75H1.31738C0.737305 0.75 0.286133 1.22266 0.286133 1.78125V2.18945C0.286133 2.36133 0.350586 2.51172 0.479492 2.59766C1.12402 3.11328 1.33887 3.30664 4.19629 5.36914C4.56152 5.62695 5.27051 6.27148 5.78613 6.25Z" fill="#7E92B3"/>
</svg>
