<svg width="13" height="14" viewBox="0 0 13 14" fill="none" xmlns="http://www.w3.org/2000/svg">
<path d="M11.832 7.41211C12.0605 7.03125 12.1875 6.625 12.1875 6.14258C12.1875 5.02539 11.2227 3.98438 10.0039 3.98438H9.06445C9.19141 3.6543 9.29297 3.27344 9.29297 2.79102C9.29297 0.9375 8.32812 0.125 6.88086 0.125C5.30664 0.125 5.4082 2.53711 5.05273 2.89258C4.46875 3.47656 3.7832 4.59375 3.30078 5H0.8125C0.355469 5 0 5.38086 0 5.8125V11.9062C0 12.3633 0.355469 12.7188 0.8125 12.7188H2.4375C2.79297 12.7188 3.12305 12.4648 3.19922 12.1348C4.3418 12.1602 5.12891 13.125 7.71875 13.125C7.92188 13.125 8.125 13.125 8.30273 13.125C10.2578 13.125 11.1211 12.1348 11.1465 10.7129C11.502 10.2559 11.6797 9.62109 11.6035 9.01172C11.8574 8.55469 11.9336 7.99609 11.832 7.41211ZM10.2578 8.7832C10.5879 9.31641 10.2832 10.0273 9.90234 10.2559C10.1055 11.4746 9.44531 11.9062 8.55664 11.9062H7.5918C5.78906 11.9062 4.5957 10.9668 3.25 10.9668V6.21875H3.50391C4.24023 6.21875 5.23047 4.44141 5.91602 3.75586C6.62695 3.04492 6.39844 1.82617 6.88086 1.34375C8.07422 1.34375 8.07422 2.18164 8.07422 2.79102C8.07422 3.78125 7.36328 4.23828 7.36328 5.20312H10.0039C10.5371 5.20312 10.9434 5.68555 10.9688 6.16797C10.9688 6.625 10.6387 7.10742 10.3848 7.10742C10.7402 7.48828 10.8164 8.27539 10.2578 8.7832ZM2.23438 11.0938C2.23438 11.4492 1.95508 11.7031 1.625 11.7031C1.26953 11.7031 1.01562 11.4492 1.01562 11.0938C1.01562 10.7637 1.26953 10.4844 1.625 10.4844C1.95508 10.4844 2.23438 10.7637 2.23438 11.0938Z" fill="url(#paint0_linear)"/>
<defs>
<linearGradient id="paint0_linear" x1="0" y1="-2.5" x2="18.9744" y2="4.13595" gradientUnits="userSpaceOnUse">
<stop stop-color="#C381DB"/>
<stop offset="1" stop-color="#4E92F9"/>
</linearGradient>
</defs>
</svg>
