<svg width="135" height="135" viewBox="0 0 135 135" fill="none" xmlns="http://www.w3.org/2000/svg">
<path d="M123.75 69.375C123.75 62.1263 117.874 56.25 110.625 56.25H63.75C56.5013 56.25 50.625 62.1263 50.625 69.375V102.416C50.625 109.664 56.5013 115.541 63.75 115.541H99.375L117.215 125.666C120.132 127.322 123.75 125.215 123.75 121.861V69.375Z" fill="url(#paint0_linear)"/>
<g opacity="0.3" filter="url(#filter0_f)">
<path d="M50.625 56.25H106.875V81.122C106.875 88.8871 100.171 94.9546 92.444 94.1819L50.625 90V56.25Z" fill="#4E92F9"/>
</g>
<g filter="url(#filter1_b)">
<path d="M11.25 28.4323C11.25 21.5661 16.8161 16 23.6823 16H84.0677C90.9339 16 96.5 21.5661 96.5 28.4323V72.6893C96.5 79.5555 90.9339 85.1216 84.0677 85.1216H39.6667L17.4396 97.737C14.677 99.3049 11.25 97.3095 11.25 94.1329V28.4323Z" fill="#C46DE3" fill-opacity="0.14"/>
<path d="M39.6667 84.648C39.5847 84.648 39.5042 84.6693 39.4329 84.7097L17.2059 97.3251C14.759 98.7138 11.7236 96.9464 11.7236 94.1329V28.4323C11.7236 21.8277 17.0777 16.4736 23.6823 16.4736H84.0677C90.6723 16.4736 96.0264 21.8277 96.0264 28.4323V72.6893C96.0264 79.2939 90.6723 84.648 84.0677 84.648H39.6667Z" stroke="url(#paint1_linear)" stroke-opacity="0.2" stroke-width="0.947222" stroke-linejoin="round"/>
</g>
<circle cx="64.5312" cy="47.9688" r="5.32812" fill="url(#paint2_linear)"/>
<circle cx="43.2188" cy="47.9688" r="5.32812" fill="url(#paint3_linear)"/>
<defs>
<filter id="filter0_f" x="44.625" y="50.25" width="68.25" height="49.9983" filterUnits="userSpaceOnUse" color-interpolation-filters="sRGB">
<feFlood flood-opacity="0" result="BackgroundImageFix"/>
<feBlend mode="normal" in="SourceGraphic" in2="BackgroundImageFix" result="shape"/>
<feGaussianBlur stdDeviation="3" result="effect1_foregroundBlur"/>
</filter>
<filter id="filter1_b" x="-9.71203" y="-4.96203" width="127.174" height="124.207" filterUnits="userSpaceOnUse" color-interpolation-filters="sRGB">
<feFlood flood-opacity="0" result="BackgroundImageFix"/>
<feGaussianBlur in="BackgroundImage" stdDeviation="10.481"/>
<feComposite in2="SourceAlpha" operator="in" result="effect1_backgroundBlur"/>
<feBlend mode="normal" in="SourceGraphic" in2="effect1_backgroundBlur" result="shape"/>
</filter>
<linearGradient id="paint0_linear" x1="87.1875" y1="56.25" x2="87.1875" y2="129.375" gradientUnits="userSpaceOnUse">
<stop stop-color="#C0D9FF"/>
<stop offset="1" stop-color="#4E92F9"/>
</linearGradient>
<linearGradient id="paint1_linear" x1="4.5" y1="14" x2="97" y2="98.5" gradientUnits="userSpaceOnUse">
<stop stop-color="#C46DE3"/>
<stop offset="1" stop-color="white"/>
</linearGradient>
<linearGradient id="paint2_linear" x1="64.5312" y1="42.6406" x2="64.5312" y2="53.2969" gradientUnits="userSpaceOnUse">
<stop stop-color="#DCA4F3"/>
<stop offset="1" stop-color="#C06DE3"/>
</linearGradient>
<linearGradient id="paint3_linear" x1="43.2188" y1="42.6406" x2="43.2188" y2="53.2969" gradientUnits="userSpaceOnUse">
<stop stop-color="#DCA4F3"/>
<stop offset="1" stop-color="#C06DE3"/>
</linearGradient>
</defs>
</svg>
