<svg width="123" height="123" viewBox="0 0 123 123" fill="none" xmlns="http://www.w3.org/2000/svg">
<path fill-rule="evenodd" clip-rule="evenodd" d="M72.15 11.0115C72.15 8.16484 74.4577 5.85718 77.3043 5.85718H85.0357C87.8823 5.85718 90.19 8.16483 90.19 11.0115V85.7486C90.19 88.5952 87.8823 90.9029 85.0357 90.9029H77.3043C74.4577 90.9029 72.15 88.5953 72.15 85.7486V11.0115ZM47.0815 25.0686C47.0815 22.222 49.3892 19.9143 52.2358 19.9143H59.4987C62.3453 19.9143 64.653 22.222 64.653 25.0686V61.6172C64.653 64.4638 62.3453 66.7715 59.4987 66.7715H52.2358C49.3892 66.7715 47.0815 64.4638 47.0815 61.6172V25.0686ZM102.373 48.3798C99.5261 48.3798 97.2185 50.6875 97.2185 53.5341V85.7484C97.2185 88.595 99.5261 90.9027 102.373 90.9027H108.816C111.662 90.9027 113.97 88.595 113.97 85.7484V53.5341C113.97 50.6875 111.662 48.3798 108.816 48.3798H102.373Z" fill="url(#paint0_linear)"/>
<mask id="mask0" style="mask-type:alpha" maskUnits="userSpaceOnUse" x="47" y="5" width="67" height="86">
<path fill-rule="evenodd" clip-rule="evenodd" d="M72.15 11.0115C72.15 8.16484 74.4577 5.85718 77.3043 5.85718H85.0357C87.8823 5.85718 90.19 8.16483 90.19 11.0115V85.7486C90.19 88.5952 87.8823 90.9029 85.0357 90.9029H77.3043C74.4577 90.9029 72.15 88.5953 72.15 85.7486V11.0115ZM47.0815 26.4746C47.0815 23.6279 49.3892 21.3203 52.2358 21.3203H59.9673C62.8139 21.3203 65.1215 23.6279 65.1215 26.4746V85.7488C65.1215 88.5955 62.8139 90.9031 59.9673 90.9031H52.2358C49.3892 90.9031 47.0815 88.5955 47.0815 85.7488V26.4746ZM102.373 48.3798C99.5261 48.3798 97.2185 50.6875 97.2185 53.5341V85.7484C97.2185 88.595 99.5261 90.9027 102.373 90.9027H108.816C111.662 90.9027 113.97 88.595 113.97 85.7484V53.5341C113.97 50.6875 111.662 48.3798 108.816 48.3798H102.373Z" fill="url(#paint1_linear)"/>
</mask>
<g mask="url(#mask0)">
<g opacity="0.3" filter="url(#filter0_f)">
<ellipse cx="57.9172" cy="73.5" rx="37.6222" ry="36.5" fill="#4E92F9"/>
</g>
</g>
<g clip-path="url(#clip0)">
<g filter="url(#filter1_b)">
<path d="M81.5739 74.4422C81.288 74.0732 80.9149 73.8537 80.4529 73.784L70.6829 72.3109C70.1492 70.6268 69.4196 68.9083 68.4944 67.1537C69.1342 66.2768 70.0948 65.0403 71.3759 63.4436C72.6569 61.8472 73.5642 60.6812 74.0986 59.9442C74.3834 59.5582 74.5248 59.1551 74.5248 58.7337C74.5248 58.2429 74.4013 57.8573 74.1512 57.5762C72.8707 55.7869 69.9342 52.8052 65.3429 48.6302C64.9175 48.2794 64.4713 48.1041 64.0093 48.1041C63.475 48.1041 63.0481 48.2617 62.7276 48.5773L55.1473 54.208C53.6877 53.4709 52.0861 52.8219 50.343 52.2607L48.8482 42.5787C48.8125 42.1227 48.6075 41.7454 48.2339 41.4472C47.8598 41.1486 47.4247 41 46.9256 41H35.0742C34.0421 41 33.4012 41.4908 33.1524 42.4732C32.6896 44.2267 32.1733 47.4893 31.6041 52.2605C29.9311 52.7877 28.3118 53.4542 26.7459 54.2609L19.3788 48.6302C18.9162 48.2794 18.4536 48.1041 17.9909 48.1041C17.208 48.1041 15.5266 49.3582 12.9462 51.8666C10.3657 54.3756 8.61383 56.2609 7.68767 57.5233C7.36717 57.9793 7.20748 58.383 7.20748 58.7337C7.20748 59.1551 7.38512 59.5761 7.74096 59.9965C10.1253 62.8387 12.0297 65.2586 13.4535 67.2592C12.5636 68.8727 11.8697 70.4867 11.3719 72.1003L1.44187 73.5733C1.0505 73.6437 0.712614 73.8721 0.427643 74.2581C0.142111 74.6437 0 75.0475 0 75.4677V87.1503C0 87.6071 0.142111 88.0183 0.427082 88.3867C0.712053 88.755 1.08547 88.9756 1.54827 89.0451L11.3184 90.4662C11.8164 92.185 12.5458 93.9209 13.5069 95.6745C12.8667 96.552 11.9058 97.7882 10.6245 99.3846C9.34346 100.982 8.43506 102.147 7.90177 102.884C7.61661 103.271 7.4745 103.674 7.4745 104.095C7.4745 104.55 7.59904 104.954 7.84792 105.304C9.23594 107.2 12.172 110.147 16.6568 114.146C17.0485 114.532 17.4935 114.724 17.9913 114.724C18.5255 114.724 18.9704 114.567 19.326 114.252L26.854 108.62C28.314 109.357 29.9152 110.006 31.6591 110.568L33.1537 120.25C33.1898 120.706 33.3943 121.083 33.7676 121.382C34.141 121.681 34.5774 121.829 35.0755 121.829H46.9269C47.9609 121.829 48.6008 121.338 48.8504 120.355C49.3125 118.602 49.8282 115.339 50.3976 110.568C52.0704 110.041 53.6899 109.375 55.2557 108.567L62.6235 114.252C63.1214 114.567 63.5848 114.724 64.0109 114.724C64.7937 114.724 66.4663 113.48 69.0284 110.988C71.5918 108.498 73.3535 106.603 74.3135 105.304C74.6334 104.954 74.7938 104.55 74.7938 104.095C74.7938 103.638 74.6168 103.199 74.2596 102.779C71.6982 99.6911 69.7938 97.2714 68.5479 95.5167C69.2595 94.2185 69.9538 92.6227 70.6302 90.7281L80.5063 89.2558C80.9325 89.1852 81.2896 88.9568 81.5737 88.5709C81.8585 88.1842 81.9998 87.7805 81.9998 87.3597V75.6784C82.0008 75.2224 81.8594 74.8108 81.5739 74.4422Z" fill="#C46DE3" fill-opacity="0.14"/>
<path d="M81.9998 75.6784V87.3597C81.9998 87.7805 81.8585 88.1842 81.5737 88.5709L81.9998 75.6784ZM81.9998 75.6784C82.0008 75.2224 81.8594 74.8108 81.5739 74.4422L81.9998 75.6784ZM70.1245 72.4879L70.2348 72.8357L70.5956 72.8901L80.3655 74.3632C80.6782 74.4103 80.9169 74.5506 81.1109 74.8009C81.3182 75.0686 81.4148 75.354 81.4141 75.6772V75.6784V87.3597C81.4141 87.6392 81.3231 87.9235 81.1021 88.2236L81.1019 88.2237C80.8993 88.499 80.6725 88.6335 80.4148 88.6773C80.4134 88.6775 80.412 88.6777 80.4106 88.678L70.5438 90.1488L70.1966 90.2006L70.0785 90.5312C69.4092 92.4061 68.7269 93.9717 68.0343 95.2351L67.8579 95.5567L68.0703 95.8558C69.3291 97.6287 71.2447 100.062 73.8088 103.153L73.8136 103.159C74.0988 103.494 74.2081 103.803 74.2081 104.095C74.2081 104.397 74.1071 104.662 73.8808 104.909L73.8604 104.932L73.8424 104.956C72.9131 106.214 71.1814 108.08 68.6203 110.568L68.6201 110.568C67.3465 111.807 66.3089 112.72 65.5026 113.321C65.0991 113.621 64.7662 113.833 64.5 113.968C64.2218 114.109 64.0692 114.139 64.0109 114.139C63.7345 114.139 63.3867 114.038 62.9591 113.771L55.6135 108.104L55.3185 107.876L54.9874 108.047C53.4511 108.839 51.8625 109.493 50.2217 110.01L49.8608 110.123L49.816 110.499C49.2463 115.273 48.7343 118.497 48.284 120.206L48.2828 120.211C48.1819 120.608 48.018 120.849 47.8266 120.995C47.634 121.143 47.3517 121.243 46.9269 121.243H35.0755C34.7027 121.243 34.3973 121.136 34.1336 120.925C33.8801 120.722 33.7602 120.49 33.7376 120.204L33.7358 120.182L33.7325 120.161L32.2379 110.479L32.1828 110.122L31.8387 110.011C30.1204 109.457 28.5478 108.819 27.1179 108.097L26.7938 107.934L26.5032 108.151L18.9752 113.783L18.9557 113.797L18.9374 113.814C18.7027 114.022 18.4019 114.139 17.9913 114.139C17.6637 114.139 17.3622 114.019 17.0678 113.729L17.0575 113.718L17.0466 113.709C12.5626 109.71 9.67143 106.802 8.32327 104.962C8.15041 104.717 8.06022 104.435 8.06022 104.095C8.06022 103.816 8.15129 103.533 8.37351 103.231L8.37623 103.227C8.90017 102.504 9.80044 101.348 11.0814 99.7511C12.3641 98.1529 13.3318 96.9083 13.9801 96.0197L14.1994 95.7192L14.0206 95.393C13.0777 93.6726 12.3657 91.9763 11.881 90.3032L11.776 89.9409L11.4027 89.8866L1.63524 88.4659C1.63465 88.4658 1.63407 88.4657 1.63348 88.4656C1.3216 88.4184 1.0832 88.2775 0.890391 88.0284C0.683015 87.7603 0.585714 87.4745 0.585714 87.1503V75.4677C0.585714 75.1895 0.677037 74.9055 0.898353 74.6066L0.89884 74.606C1.11205 74.3172 1.32584 74.1914 1.53791 74.1512L11.4579 72.6796L11.8228 72.6255L11.9316 72.2729C12.4166 70.7009 13.0941 69.1236 13.9664 67.542L14.1442 67.2196L13.9307 66.9196C12.4946 64.9016 10.5794 62.4686 8.18969 59.6201L8.18804 59.6181C7.89399 59.2707 7.7932 58.9789 7.7932 58.7337C7.7932 58.5559 7.8778 58.2727 8.16353 57.8649C9.05928 56.6453 10.7788 54.7908 13.3544 52.2866C14.6373 51.0395 15.6818 50.1191 16.4928 49.5143C16.8987 49.2115 17.2335 48.9974 17.5009 48.8613C17.7807 48.7189 17.9334 48.6899 17.9909 48.6899C18.296 48.6899 18.6372 48.8032 19.0239 49.0961C19.0242 49.0964 19.0246 49.0967 19.0249 49.0969L26.3903 54.7263L26.6847 54.9513L27.0142 54.7816C28.5505 53.9901 30.139 53.3363 31.7801 52.8191L32.1409 52.7055L32.1857 52.3299C32.7552 47.5557 33.2677 44.3314 33.7187 42.6227L33.7187 42.6227L33.7201 42.6171C33.8206 42.2204 33.9844 41.9798 34.1759 41.8331C34.3684 41.6855 34.6506 41.5857 35.0742 41.5857H46.9256C47.2982 41.5857 47.603 41.693 47.8685 41.9049C48.122 42.1072 48.2419 42.3383 48.2643 42.6244L48.266 42.6463L48.2693 42.668L49.7641 52.3501L49.8193 52.7074L50.1635 52.8182C51.881 53.3712 53.4539 54.009 54.8833 54.7308L55.2062 54.8939L55.4966 54.6782L63.0769 49.0475L63.1096 49.0232L63.1386 48.9947C63.3293 48.8069 63.5979 48.6899 64.0093 48.6899C64.3079 48.6899 64.6228 48.7987 64.9598 49.0735C69.5506 53.2485 72.437 56.1874 73.6748 57.9171L73.693 57.9424L73.7136 57.9656C73.8414 58.1092 73.939 58.34 73.939 58.7337C73.939 59.0137 73.848 59.2973 73.6273 59.5964L73.6244 59.6003C73.0991 60.3249 72.1996 61.4812 70.9191 63.077L70.919 63.0771C69.6364 64.6758 68.6691 65.9205 68.0212 66.8085L67.8058 67.1037L67.9763 67.4269C68.8872 69.1544 69.6026 70.8408 70.1245 72.4879Z" stroke="url(#paint2_linear)" stroke-opacity="0.2" stroke-width="1.17143"/>
</g>
<ellipse cx="33.2731" cy="72.5542" rx="5.51923" ry="5.44038" fill="url(#paint3_linear)"/>
<ellipse cx="49.5158" cy="87.4765" rx="5.51923" ry="5.44039" fill="url(#paint4_linear)"/>
<rect width="5.63135" height="31.8874" rx="2.81567" transform="matrix(0.712175 0.702001 -0.712175 0.702001 51.1929 67.1423)" fill="url(#paint5_linear)"/>
</g>
<defs>
<filter id="filter0_f" x="4.29492" y="21" width="107.244" height="105" filterUnits="userSpaceOnUse" color-interpolation-filters="sRGB">
<feFlood flood-opacity="0" result="BackgroundImageFix"/>
<feBlend mode="normal" in="SourceGraphic" in2="BackgroundImageFix" result="shape"/>
<feGaussianBlur stdDeviation="8" result="effect1_foregroundBlur"/>
</filter>
<filter id="filter1_b" x="-18.7429" y="22.2571" width="119.486" height="118.314" filterUnits="userSpaceOnUse" color-interpolation-filters="sRGB">
<feFlood flood-opacity="0" result="BackgroundImageFix"/>
<feGaussianBlur in="BackgroundImage" stdDeviation="9.37143"/>
<feComposite in2="SourceAlpha" operator="in" result="effect1_backgroundBlur"/>
<feBlend mode="normal" in="SourceGraphic" in2="effect1_backgroundBlur" result="shape"/>
</filter>
<linearGradient id="paint0_linear" x1="80.5257" y1="5.85718" x2="80.5257" y2="90.9029" gradientUnits="userSpaceOnUse">
<stop stop-color="#C0D9FF"/>
<stop offset="1" stop-color="#4E92F9"/>
</linearGradient>
<linearGradient id="paint1_linear" x1="106.724" y1="48.3801" x2="106.724" y2="90.9031" gradientUnits="userSpaceOnUse">
<stop stop-color="#8EFBFF"/>
<stop offset="1" stop-color="#21D4DF"/>
</linearGradient>
<linearGradient id="paint2_linear" x1="-6.49266" y1="39.1037" x2="81.3148" y2="120.479" gradientUnits="userSpaceOnUse">
<stop stop-color="#C46DE3"/>
<stop offset="1" stop-color="white"/>
</linearGradient>
<linearGradient id="paint3_linear" x1="33.2731" y1="67.1138" x2="33.2731" y2="77.9945" gradientUnits="userSpaceOnUse">
<stop stop-color="#DCA4F3"/>
<stop offset="1" stop-color="#C06DE3"/>
</linearGradient>
<linearGradient id="paint4_linear" x1="49.5158" y1="82.0361" x2="49.5158" y2="92.9169" gradientUnits="userSpaceOnUse">
<stop stop-color="#DCA4F3"/>
<stop offset="1" stop-color="#C06DE3"/>
</linearGradient>
<linearGradient id="paint5_linear" x1="2.81567" y1="0" x2="2.81567" y2="31.8874" gradientUnits="userSpaceOnUse">
<stop stop-color="#DCA4F3"/>
<stop offset="1" stop-color="#C06DE3"/>
</linearGradient>
<clipPath id="clip0">
<rect width="82" height="80.8286" fill="white" transform="translate(0 41)"/>
</clipPath>
</defs>
</svg>
