<svg width="1142" height="568" viewBox="0 0 1142 568" fill="none" xmlns="http://www.w3.org/2000/svg">
<path opacity="0.7" d="M1541.81 -101.383L1540.39 -104.944L1536.63 -105.663L21.3123 -394.876L10.2616 -396.985L13.2518 -386.139C35.5047 -305.427 48.4273 -214.015 61.7767 -119.585C67.9354 -76.0197 74.1849 -31.812 81.4833 12.2836C104.495 151.318 137.899 288.588 212.409 396.535C297.791 520.233 475.81 573.697 664.982 558.466C783.253 558.402 846.194 518.471 896.643 475.19C906.44 466.785 915.678 458.362 924.688 450.148C962.254 415.898 995.853 385.266 1049.47 374.578C1082.99 367.897 1116.85 368.249 1151.89 370.014C1159.74 370.409 1167.66 370.877 1175.65 371.349C1203.08 372.97 1231.3 374.637 1260 373.569C1334.88 370.784 1413.75 349.413 1499.12 262.138C1566.27 193.484 1576.56 102.002 1570.51 28.7371C1567.48 -7.98907 1560.33 -40.4537 1553.94 -63.7291C1550.74 -75.3752 1547.73 -84.743 1545.51 -91.2192C1544.39 -94.4578 1543.48 -96.9749 1542.84 -98.694C1542.52 -99.5537 1542.27 -100.214 1542.1 -100.665C1542.01 -100.891 1541.94 -101.064 1541.89 -101.184L1541.84 -101.324L1541.82 -101.364L1541.82 -101.376C1541.82 -101.38 1541.81 -101.383 1535.31 -98.7874L1541.81 -101.383Z" stroke="url(#paint0_linear)" stroke-width="14"/>
<path d="M1501.31 -108.628C1501.31 -108.628 1587.32 106.711 1461.5 235.289C1299.22 401.137 1163.5 315.5 1030.5 342C897.5 368.5 884.956 519.5 660 519.5C478.206 534.197 309.07 482.682 228.5 366C86.3091 160.078 100.091 -159.252 37 -388L1501.31 -108.628Z" fill="url(#paint1_linear)" fill-opacity="0.2"/>
<defs>
<linearGradient id="paint0_linear" x1="1177.5" y1="835" x2="792.5" y2="-388" gradientUnits="userSpaceOnUse">
<stop stop-color="#EFAB18"/>
<stop offset="1" stop-color="#FFF0D0"/>
</linearGradient>
<linearGradient id="paint1_linear" x1="424.5" y1="728" x2="1076.67" y2="-170.402" gradientUnits="userSpaceOnUse">
<stop stop-color="#CD8BE6"/>
<stop offset="1" stop-color="#4B95FF"/>
</linearGradient>
</defs>
</svg>
