<svg width="24" height="14" viewBox="0 0 24 14" fill="none" xmlns="http://www.w3.org/2000/svg">
<path d="M23.124 4.90711L19.245 1.02911C19.0575 0.841643 18.8032 0.736328 18.538 0.736328C18.2728 0.736328 18.0185 0.841643 17.831 1.02911C17.6435 1.21664 17.5382 1.47095 17.5382 1.73611C17.5382 2.00128 17.6435 2.25559 17.831 2.44311L21.386 6.00011H1C0.734784 6.00011 0.48043 6.10547 0.292893 6.29301C0.105357 6.48054 0 6.7349 0 7.00011H0C0 7.26533 0.105357 7.51968 0.292893 7.70722C0.48043 7.89476 0.734784 8.00011 1 8.00011H21.447L17.831 11.6151C17.738 11.708 17.6643 11.8183 17.6139 11.9397C17.5636 12.0611 17.5377 12.1912 17.5377 12.3226C17.5377 12.454 17.5636 12.5842 17.6139 12.7056C17.6643 12.827 17.738 12.9372 17.831 13.0301C18.0185 13.2176 18.2728 13.3229 18.538 13.3229C18.8032 13.3229 19.0575 13.2176 19.245 13.0301L23.125 9.15111C23.6859 8.58728 24.0007 7.82424 24.0006 7.02891C24.0004 6.23357 23.6852 5.47068 23.124 4.90711Z" fill="#4E92F9"/>
</svg>
