<svg width="15" height="11" viewBox="0 0 15 11" fill="none" xmlns="http://www.w3.org/2000/svg">
<path d="M7.3125 2.78125C7.0332 2.80664 6.75391 2.83203 6.5 2.9082C6.62695 3.11133 6.67773 3.36523 6.70312 3.59375C6.70312 4.38086 6.04297 5.01562 5.28125 5.01562C5.02734 5.01562 4.77344 4.96484 4.5957 4.83789C4.51953 5.0918 4.46875 5.3457 4.46875 5.625C4.46875 7.19922 5.73828 8.46875 7.3125 8.46875C8.88672 8.46875 10.1562 7.19922 10.1562 5.625C10.1562 4.07617 8.88672 2.80664 7.3125 2.80664V2.78125ZM14.5234 5.26953C13.1523 2.57812 10.4102 0.75 7.3125 0.75C4.18945 0.75 1.44727 2.57812 0.0761719 5.26953C0.0253906 5.37109 0 5.49805 0 5.625C0 5.77734 0.0253906 5.9043 0.0761719 6.00586C1.44727 8.69727 4.18945 10.5 7.3125 10.5C10.4102 10.5 13.1523 8.69727 14.5234 6.00586C14.5742 5.9043 14.5996 5.77734 14.5996 5.65039C14.5996 5.49805 14.5742 5.37109 14.5234 5.26953ZM7.3125 9.28125C4.79883 9.28125 2.48828 7.88477 1.26953 5.625C2.48828 3.36523 4.79883 1.96875 7.3125 1.96875C9.80078 1.96875 12.1113 3.36523 13.3301 5.625C12.1113 7.88477 9.80078 9.28125 7.3125 9.28125Z" fill="url(#paint0_linear)"/>
<defs>
<linearGradient id="paint0_linear" x1="0" y1="-3.5" x2="18.9744" y2="3.13595" gradientUnits="userSpaceOnUse">
<stop stop-color="#C381DB"/>
<stop offset="1" stop-color="#4E92F9"/>
</linearGradient>
</defs>
</svg>
